<mxfile host="app.diagrams.net" agent="Mozilla/5.0 (Windows NT 10.0; Win64; x64) AppleWebKit/537.36 (KHTML, like Gecko) Chrome/134.0.0.0 Safari/537.36 Edg/134.0.0.0" version="26.0.14">
  <diagram name="Page-1" id="tJ6w08dKAp0Ef7kpCj4Y">
    <mxGraphModel dx="1426" dy="781" grid="1" gridSize="10" guides="1" tooltips="1" connect="1" arrows="1" fold="1" page="1" pageScale="1" pageWidth="3300" pageHeight="4681" math="0" shadow="0">
      <root>
        <mxCell id="0" />
        <mxCell id="1" parent="0" />
        <mxCell id="81jzzBxcelTQIamWAcnk-27" style="edgeStyle=orthogonalEdgeStyle;rounded=0;orthogonalLoop=1;jettySize=auto;html=1;exitX=0.5;exitY=1;exitDx=0;exitDy=0;exitPerimeter=0;entryX=0.5;entryY=0;entryDx=0;entryDy=0;" edge="1" parent="1" source="81jzzBxcelTQIamWAcnk-2" target="81jzzBxcelTQIamWAcnk-26">
          <mxGeometry relative="1" as="geometry" />
        </mxCell>
        <mxCell id="81jzzBxcelTQIamWAcnk-2" value="开始" style="strokeWidth=2;html=1;shape=mxgraph.flowchart.start_2;whiteSpace=wrap;" vertex="1" parent="1">
          <mxGeometry x="590" y="280" width="60" height="60" as="geometry" />
        </mxCell>
        <mxCell id="81jzzBxcelTQIamWAcnk-31" style="edgeStyle=orthogonalEdgeStyle;rounded=0;orthogonalLoop=1;jettySize=auto;html=1;exitX=1;exitY=0.5;exitDx=0;exitDy=0;entryX=0;entryY=0.5;entryDx=0;entryDy=0;" edge="1" parent="1" source="81jzzBxcelTQIamWAcnk-26" target="81jzzBxcelTQIamWAcnk-28">
          <mxGeometry relative="1" as="geometry" />
        </mxCell>
        <mxCell id="81jzzBxcelTQIamWAcnk-26" value="选择特定接口配置" style="rounded=1;whiteSpace=wrap;html=1;absoluteArcSize=1;arcSize=14;strokeWidth=2;" vertex="1" parent="1">
          <mxGeometry x="570" y="390" width="100" height="40" as="geometry" />
        </mxCell>
        <mxCell id="81jzzBxcelTQIamWAcnk-30" style="edgeStyle=orthogonalEdgeStyle;rounded=0;orthogonalLoop=1;jettySize=auto;html=1;exitX=0.5;exitY=0;exitDx=0;exitDy=0;entryX=0.5;entryY=1;entryDx=0;entryDy=0;" edge="1" parent="1" source="81jzzBxcelTQIamWAcnk-28" target="81jzzBxcelTQIamWAcnk-29">
          <mxGeometry relative="1" as="geometry" />
        </mxCell>
        <mxCell id="81jzzBxcelTQIamWAcnk-28" value="获取报文描述符" style="rounded=1;whiteSpace=wrap;html=1;absoluteArcSize=1;arcSize=14;strokeWidth=2;" vertex="1" parent="1">
          <mxGeometry x="710" y="390" width="100" height="40" as="geometry" />
        </mxCell>
        <mxCell id="81jzzBxcelTQIamWAcnk-36" style="edgeStyle=orthogonalEdgeStyle;rounded=0;orthogonalLoop=1;jettySize=auto;html=1;exitX=1;exitY=0.5;exitDx=0;exitDy=0;entryX=0;entryY=0.5;entryDx=0;entryDy=0;" edge="1" parent="1" source="81jzzBxcelTQIamWAcnk-29" target="81jzzBxcelTQIamWAcnk-32">
          <mxGeometry relative="1" as="geometry" />
        </mxCell>
        <mxCell id="81jzzBxcelTQIamWAcnk-29" value="解析报文描述符" style="rounded=1;whiteSpace=wrap;html=1;absoluteArcSize=1;arcSize=14;strokeWidth=2;" vertex="1" parent="1">
          <mxGeometry x="710" y="300" width="100" height="40" as="geometry" />
        </mxCell>
        <mxCell id="81jzzBxcelTQIamWAcnk-37" style="edgeStyle=orthogonalEdgeStyle;rounded=0;orthogonalLoop=1;jettySize=auto;html=1;exitX=1;exitY=0.5;exitDx=0;exitDy=0;entryX=0;entryY=0.5;entryDx=0;entryDy=0;" edge="1" parent="1" source="81jzzBxcelTQIamWAcnk-32" target="81jzzBxcelTQIamWAcnk-33">
          <mxGeometry relative="1" as="geometry" />
        </mxCell>
        <mxCell id="81jzzBxcelTQIamWAcnk-32" value="发起中断传输" style="rounded=1;whiteSpace=wrap;html=1;absoluteArcSize=1;arcSize=14;strokeWidth=2;" vertex="1" parent="1">
          <mxGeometry x="840" y="300" width="100" height="40" as="geometry" />
        </mxCell>
        <mxCell id="81jzzBxcelTQIamWAcnk-38" style="edgeStyle=orthogonalEdgeStyle;rounded=0;orthogonalLoop=1;jettySize=auto;html=1;exitX=0.5;exitY=1;exitDx=0;exitDy=0;entryX=0.5;entryY=0;entryDx=0;entryDy=0;" edge="1" parent="1" source="81jzzBxcelTQIamWAcnk-33" target="81jzzBxcelTQIamWAcnk-35">
          <mxGeometry relative="1" as="geometry" />
        </mxCell>
        <mxCell id="81jzzBxcelTQIamWAcnk-33" value="等待传输响应" style="rounded=1;whiteSpace=wrap;html=1;absoluteArcSize=1;arcSize=14;strokeWidth=2;" vertex="1" parent="1">
          <mxGeometry x="970" y="300" width="100" height="40" as="geometry" />
        </mxCell>
        <mxCell id="81jzzBxcelTQIamWAcnk-40" style="edgeStyle=orthogonalEdgeStyle;rounded=0;orthogonalLoop=1;jettySize=auto;html=1;exitX=0.5;exitY=0;exitDx=0;exitDy=0;entryX=0.5;entryY=1;entryDx=0;entryDy=0;" edge="1" parent="1" source="81jzzBxcelTQIamWAcnk-34" target="81jzzBxcelTQIamWAcnk-32">
          <mxGeometry relative="1" as="geometry" />
        </mxCell>
        <mxCell id="81jzzBxcelTQIamWAcnk-34" value="根据报文描述符解析报文" style="rounded=1;whiteSpace=wrap;html=1;absoluteArcSize=1;arcSize=14;strokeWidth=2;" vertex="1" parent="1">
          <mxGeometry x="840" y="390" width="100" height="40" as="geometry" />
        </mxCell>
        <mxCell id="81jzzBxcelTQIamWAcnk-39" style="edgeStyle=orthogonalEdgeStyle;rounded=0;orthogonalLoop=1;jettySize=auto;html=1;exitX=0;exitY=0.5;exitDx=0;exitDy=0;" edge="1" parent="1" source="81jzzBxcelTQIamWAcnk-35" target="81jzzBxcelTQIamWAcnk-34">
          <mxGeometry relative="1" as="geometry" />
        </mxCell>
        <mxCell id="81jzzBxcelTQIamWAcnk-35" value="获取到设备报文" style="rounded=1;whiteSpace=wrap;html=1;absoluteArcSize=1;arcSize=14;strokeWidth=2;" vertex="1" parent="1">
          <mxGeometry x="970" y="390" width="100" height="40" as="geometry" />
        </mxCell>
        <mxCell id="81jzzBxcelTQIamWAcnk-43" value="将解析后报文发送至事件总线" style="strokeWidth=2;html=1;shape=mxgraph.flowchart.terminator;whiteSpace=wrap;" vertex="1" parent="1">
          <mxGeometry x="830" y="460" width="120" height="60" as="geometry" />
        </mxCell>
        <mxCell id="81jzzBxcelTQIamWAcnk-44" style="edgeStyle=orthogonalEdgeStyle;rounded=0;orthogonalLoop=1;jettySize=auto;html=1;exitX=0.5;exitY=1;exitDx=0;exitDy=0;entryX=0.5;entryY=0;entryDx=0;entryDy=0;entryPerimeter=0;" edge="1" parent="1" source="81jzzBxcelTQIamWAcnk-34" target="81jzzBxcelTQIamWAcnk-43">
          <mxGeometry relative="1" as="geometry" />
        </mxCell>
      </root>
    </mxGraphModel>
  </diagram>
</mxfile>
